<?xml version="1.0" encoding="UTF-8" standalone="no"?><svg xmlns="http://www.w3.org/2000/svg" xmlns:xlink="http://www.w3.org/1999/xlink" contentStyleType="text/css" height="1324px" preserveAspectRatio="none" style="width:974px;height:1324px;background:#FFFFFF;" version="1.1" viewBox="0 0 974 1324" width="974px" zoomAndPan="magnify"><defs/><g><!--MD5=[9d29d1e9646501ff3c89597d63b2755d]
class ConsoleUI--><g id="elem_ConsoleUI"><rect codeLine="1" fill="#F1F1F1" height="227.2656" id="ConsoleUI" rx="2.5" ry="2.5" style="stroke:#181818;stroke-width:0.5;" width="197" x="416.5" y="7"/><ellipse cx="475.75" cy="23" fill="#ADD1B2" rx="11" ry="11" style="stroke:#181818;stroke-width:1.0;"/><path d="M478.7188,28.6406 Q478.1406,28.9375 477.5,29.0781 Q476.8594,29.2344 476.1563,29.2344 Q473.6563,29.2344 472.3281,27.5938 Q471.0156,25.9375 471.0156,22.8125 Q471.0156,19.6875 472.3281,18.0313 Q473.6563,16.375 476.1563,16.375 Q476.8594,16.375 477.5,16.5313 Q478.1563,16.6875 478.7188,16.9844 L478.7188,19.7031 Q478.0938,19.125 477.5,18.8594 Q476.9063,18.5781 476.2813,18.5781 Q474.9375,18.5781 474.25,19.6563 Q473.5625,20.7188 473.5625,22.8125 Q473.5625,24.9063 474.25,25.9844 Q474.9375,27.0469 476.2813,27.0469 Q476.9063,27.0469 477.5,26.7813 Q478.0938,26.5 478.7188,25.9219 L478.7188,28.6406 Z " fill="#000000"/><text fill="#000000" font-family="sans-serif" font-size="14" lengthAdjust="spacing" textLength="70" x="496.25" y="27.8467">ConsoleUI</text><line style="stroke:#181818;stroke-width:0.5;" x1="417.5" x2="612.5" y1="39" y2="39"/><rect fill="none" height="6" style="stroke:#C82930;stroke-width:1.0;" width="6" x="424.5" y="49.6484"/><text fill="#000000" font-family="sans-serif" font-size="14" lengthAdjust="spacing" textLength="111" x="436.5" y="55.9951">canvas : Canvas</text><rect fill="none" height="6" style="stroke:#C82930;stroke-width:1.0;" width="6" x="424.5" y="65.9453"/><text fill="#000000" font-family="sans-serif" font-size="14" lengthAdjust="spacing" textLength="114" x="436.5" y="72.292">actions : Actions</text><line style="stroke:#181818;stroke-width:0.5;" x1="417.5" x2="612.5" y1="79.5938" y2="79.5938"/><ellipse cx="427.5" cy="93.2422" fill="#84BE84" rx="3" ry="3" style="stroke:#038048;stroke-width:1.0;"/><text fill="#000000" font-family="sans-serif" font-size="14" lengthAdjust="spacing" textLength="74" x="436.5" y="96.5889">run() : void</text><ellipse cx="427.5" cy="109.5391" fill="#84BE84" rx="3" ry="3" style="stroke:#038048;stroke-width:1.0;"/><text fill="#000000" font-family="sans-serif" font-size="14" lengthAdjust="spacing" textLength="171" x="436.5" y="112.8857">checkingForInput() : void</text><rect fill="#F24D5C" height="6" style="stroke:#C82930;stroke-width:1.0;" width="6" x="424.5" y="122.8359"/><text fill="#000000" font-family="sans-serif" font-size="14" lengthAdjust="spacing" textLength="120" x="436.5" y="129.1826">addFigure() : void</text><rect fill="#F24D5C" height="6" style="stroke:#C82930;stroke-width:1.0;" width="6" x="424.5" y="139.1328"/><text fill="#000000" font-family="sans-serif" font-size="14" lengthAdjust="spacing" textLength="138" x="436.5" y="145.4795">deleteFigure() : void</text><rect fill="#F24D5C" height="6" style="stroke:#C82930;stroke-width:1.0;" width="6" x="424.5" y="155.4297"/><text fill="#000000" font-family="sans-serif" font-size="14" lengthAdjust="spacing" textLength="132" x="436.5" y="161.7764">moveFigure() : void</text><rect fill="#F24D5C" height="6" style="stroke:#C82930;stroke-width:1.0;" width="6" x="424.5" y="171.7266"/><text fill="#000000" font-family="sans-serif" font-size="14" lengthAdjust="spacing" textLength="133" x="436.5" y="178.0732">saveCanvas() : void</text><rect fill="#F24D5C" height="6" style="stroke:#C82930;stroke-width:1.0;" width="6" x="424.5" y="188.0234"/><text fill="#000000" font-family="sans-serif" font-size="14" lengthAdjust="spacing" textLength="130" x="436.5" y="194.3701">loadCanvas() : void</text><rect fill="#F24D5C" height="6" style="stroke:#C82930;stroke-width:1.0;" width="6" x="424.5" y="204.3203"/><text fill="#000000" font-family="sans-serif" font-size="14" lengthAdjust="spacing" textLength="130" x="436.5" y="210.667">undoAction() : void</text><rect fill="#F24D5C" height="6" style="stroke:#C82930;stroke-width:1.0;" width="6" x="424.5" y="220.6172"/><text fill="#000000" font-family="sans-serif" font-size="14" lengthAdjust="spacing" textLength="126" x="436.5" y="226.9639">redoAction() : void</text></g><!--MD5=[5edf34eb39d3b3dfde6419c044ab889f]
class Canvas--><g id="elem_Canvas"><rect codeLine="15" fill="#F1F1F1" height="178.375" id="Canvas" rx="2.5" ry="2.5" style="stroke:#181818;stroke-width:0.5;" width="213" x="271.5" y="294"/><ellipse cx="348.75" cy="310" fill="#ADD1B2" rx="11" ry="11" style="stroke:#181818;stroke-width:1.0;"/><path d="M351.7188,315.6406 Q351.1406,315.9375 350.5,316.0781 Q349.8594,316.2344 349.1563,316.2344 Q346.6563,316.2344 345.3281,314.5938 Q344.0156,312.9375 344.0156,309.8125 Q344.0156,306.6875 345.3281,305.0313 Q346.6563,303.375 349.1563,303.375 Q349.8594,303.375 350.5,303.5313 Q351.1563,303.6875 351.7188,303.9844 L351.7188,306.7031 Q351.0938,306.125 350.5,305.8594 Q349.9063,305.5781 349.2813,305.5781 Q347.9375,305.5781 347.25,306.6563 Q346.5625,307.7188 346.5625,309.8125 Q346.5625,311.9063 347.25,312.9844 Q347.9375,314.0469 349.2813,314.0469 Q349.9063,314.0469 350.5,313.7813 Q351.0938,313.5 351.7188,312.9219 L351.7188,315.6406 Z " fill="#000000"/><text fill="#000000" font-family="sans-serif" font-size="14" lengthAdjust="spacing" textLength="50" x="369.25" y="314.8467">Canvas</text><line style="stroke:#181818;stroke-width:0.5;" x1="272.5" x2="483.5" y1="326" y2="326"/><rect fill="none" height="6" style="stroke:#C82930;stroke-width:1.0;" width="6" x="279.5" y="336.6484"/><text fill="#000000" font-family="sans-serif" font-size="14" lengthAdjust="spacing" textLength="150" x="291.5" y="342.9951">figures : List&lt;Figure&gt;</text><rect fill="none" height="6" style="stroke:#C82930;stroke-width:1.0;" width="6" x="279.5" y="352.9453"/><text fill="#000000" font-family="sans-serif" font-size="14" lengthAdjust="spacing" textLength="89" x="291.5" y="359.292">grid : char[][]</text><line style="stroke:#181818;stroke-width:0.5;" x1="272.5" x2="483.5" y1="366.5938" y2="366.5938"/><ellipse cx="282.5" cy="380.2422" fill="#84BE84" rx="3" ry="3" style="stroke:#038048;stroke-width:1.0;"/><text fill="#000000" font-family="sans-serif" font-size="14" lengthAdjust="spacing" textLength="120" x="291.5" y="383.5889">addFigure() : void</text><ellipse cx="282.5" cy="396.5391" fill="#84BE84" rx="3" ry="3" style="stroke:#038048;stroke-width:1.0;"/><text fill="#000000" font-family="sans-serif" font-size="14" lengthAdjust="spacing" textLength="146" x="291.5" y="399.8857">removeFigure() : void</text><ellipse cx="282.5" cy="412.8359" fill="#84BE84" rx="3" ry="3" style="stroke:#038048;stroke-width:1.0;"/><text fill="#000000" font-family="sans-serif" font-size="14" lengthAdjust="spacing" textLength="132" x="291.5" y="416.1826">moveFigure() : void</text><ellipse cx="282.5" cy="429.1328" fill="#84BE84" rx="3" ry="3" style="stroke:#038048;stroke-width:1.0;"/><text fill="#000000" font-family="sans-serif" font-size="14" lengthAdjust="spacing" textLength="99" x="291.5" y="432.4795">repaint() : void</text><ellipse cx="282.5" cy="445.4297" fill="#84BE84" rx="3" ry="3" style="stroke:#038048;stroke-width:1.0;"/><text fill="#000000" font-family="sans-serif" font-size="14" lengthAdjust="spacing" textLength="112" x="291.5" y="448.7764">clearGrid() : void</text><ellipse cx="282.5" cy="461.7266" fill="#84BE84" rx="3" ry="3" style="stroke:#038048;stroke-width:1.0;"/><text fill="#000000" font-family="sans-serif" font-size="14" lengthAdjust="spacing" textLength="187" x="291.5" y="465.0732">getFigures() : List&lt;Figure&gt;</text></g><!--MD5=[ea4cce72e685b6d12198119dfbbae3d2]
class Actions--><g id="elem_Actions"><rect codeLine="26" fill="#F1F1F1" height="129.4844" id="Actions" rx="2.5" ry="2.5" style="stroke:#181818;stroke-width:0.5;" width="264" x="520" y="318.5"/><ellipse cx="622.25" cy="334.5" fill="#ADD1B2" rx="11" ry="11" style="stroke:#181818;stroke-width:1.0;"/><path d="M625.2188,340.1406 Q624.6406,340.4375 624,340.5781 Q623.3594,340.7344 622.6563,340.7344 Q620.1563,340.7344 618.8281,339.0938 Q617.5156,337.4375 617.5156,334.3125 Q617.5156,331.1875 618.8281,329.5313 Q620.1563,327.875 622.6563,327.875 Q623.3594,327.875 624,328.0313 Q624.6563,328.1875 625.2188,328.4844 L625.2188,331.2031 Q624.5938,330.625 624,330.3594 Q623.4063,330.0781 622.7813,330.0781 Q621.4375,330.0781 620.75,331.1563 Q620.0625,332.2188 620.0625,334.3125 Q620.0625,336.4063 620.75,337.4844 Q621.4375,338.5469 622.7813,338.5469 Q623.4063,338.5469 624,338.2813 Q624.5938,338 625.2188,337.4219 L625.2188,340.1406 Z " fill="#000000"/><text fill="#000000" font-family="sans-serif" font-size="14" lengthAdjust="spacing" textLength="51" x="642.75" y="339.3467">Actions</text><line style="stroke:#181818;stroke-width:0.5;" x1="521" x2="783" y1="350.5" y2="350.5"/><rect fill="none" height="6" style="stroke:#C82930;stroke-width:1.0;" width="6" x="528" y="361.1484"/><text fill="#000000" font-family="sans-serif" font-size="14" lengthAdjust="spacing" textLength="214" x="540" y="367.4951">history : Stack&lt;ActionRecord&gt;</text><rect fill="none" height="6" style="stroke:#C82930;stroke-width:1.0;" width="6" x="528" y="377.4453"/><text fill="#000000" font-family="sans-serif" font-size="14" lengthAdjust="spacing" textLength="238" x="540" y="383.792">redoStack : Stack&lt;ActionRecord&gt;</text><line style="stroke:#181818;stroke-width:0.5;" x1="521" x2="783" y1="391.0938" y2="391.0938"/><ellipse cx="531" cy="404.7422" fill="#84BE84" rx="3" ry="3" style="stroke:#038048;stroke-width:1.0;"/><text fill="#000000" font-family="sans-serif" font-size="14" lengthAdjust="spacing" textLength="120" x="540" y="408.0889">addAction() : void</text><ellipse cx="531" cy="421.0391" fill="#84BE84" rx="3" ry="3" style="stroke:#038048;stroke-width:1.0;"/><text fill="#000000" font-family="sans-serif" font-size="14" lengthAdjust="spacing" textLength="87" x="540" y="424.3857">undo() : void</text><ellipse cx="531" cy="437.3359" fill="#84BE84" rx="3" ry="3" style="stroke:#038048;stroke-width:1.0;"/><text fill="#000000" font-family="sans-serif" font-size="14" lengthAdjust="spacing" textLength="83" x="540" y="440.6826">redo() : void</text></g><!--MD5=[119c5db7e33f423ead4629b16be1616b]
class ActionRecord--><g id="elem_ActionRecord"><rect codeLine="34" fill="#F1F1F1" height="162.0781" id="ActionRecord" rx="2.5" ry="2.5" style="stroke:#181818;stroke-width:0.5;" width="154" x="575" y="532"/><ellipse cx="603.05" cy="548" fill="#ADD1B2" rx="11" ry="11" style="stroke:#181818;stroke-width:1.0;"/><path d="M606.0188,553.6406 Q605.4406,553.9375 604.8,554.0781 Q604.1594,554.2344 603.4563,554.2344 Q600.9563,554.2344 599.6281,552.5938 Q598.3156,550.9375 598.3156,547.8125 Q598.3156,544.6875 599.6281,543.0313 Q600.9563,541.375 603.4563,541.375 Q604.1594,541.375 604.8,541.5313 Q605.4563,541.6875 606.0188,541.9844 L606.0188,544.7031 Q605.3938,544.125 604.8,543.8594 Q604.2063,543.5781 603.5813,543.5781 Q602.2375,543.5781 601.55,544.6563 Q600.8625,545.7188 600.8625,547.8125 Q600.8625,549.9063 601.55,550.9844 Q602.2375,552.0469 603.5813,552.0469 Q604.2063,552.0469 604.8,551.7813 Q605.3938,551.5 606.0188,550.9219 L606.0188,553.6406 Z " fill="#000000"/><text fill="#000000" font-family="sans-serif" font-size="14" lengthAdjust="spacing" textLength="93" x="619.95" y="552.8467">ActionRecord</text><line style="stroke:#181818;stroke-width:0.5;" x1="576" x2="728" y1="564" y2="564"/><ellipse cx="586" cy="577.6484" fill="none" rx="3" ry="3" style="stroke:#038048;stroke-width:1.0;"/><text fill="#000000" font-family="sans-serif" font-size="14" lengthAdjust="spacing" textLength="128" x="595" y="580.9951">actionType : string</text><ellipse cx="586" cy="593.9453" fill="none" rx="3" ry="3" style="stroke:#038048;stroke-width:1.0;"/><text fill="#000000" font-family="sans-serif" font-size="14" lengthAdjust="spacing" textLength="81" x="595" y="597.292">figureId : int</text><ellipse cx="586" cy="610.2422" fill="none" rx="3" ry="3" style="stroke:#038048;stroke-width:1.0;"/><text fill="#000000" font-family="sans-serif" font-size="14" lengthAdjust="spacing" textLength="60" x="595" y="613.5889">xOld : int</text><ellipse cx="586" cy="626.5391" fill="none" rx="3" ry="3" style="stroke:#038048;stroke-width:1.0;"/><text fill="#000000" font-family="sans-serif" font-size="14" lengthAdjust="spacing" textLength="60" x="595" y="629.8857">yOld : int</text><ellipse cx="586" cy="642.8359" fill="none" rx="3" ry="3" style="stroke:#038048;stroke-width:1.0;"/><text fill="#000000" font-family="sans-serif" font-size="14" lengthAdjust="spacing" textLength="67" x="595" y="646.1826">xNew : int</text><ellipse cx="586" cy="659.1328" fill="none" rx="3" ry="3" style="stroke:#038048;stroke-width:1.0;"/><text fill="#000000" font-family="sans-serif" font-size="14" lengthAdjust="spacing" textLength="67" x="595" y="662.4795">yNew : int</text><ellipse cx="586" cy="675.4297" fill="none" rx="3" ry="3" style="stroke:#038048;stroke-width:1.0;"/><text fill="#000000" font-family="sans-serif" font-size="14" lengthAdjust="spacing" textLength="95" x="595" y="678.7764">figure : Figure</text><line style="stroke:#181818;stroke-width:0.5;" x1="576" x2="728" y1="686.0781" y2="686.0781"/></g><!--MD5=[a2a6247c4220d285c6759f2fd5931a4f]
class Figure--><g id="elem_Figure"><rect codeLine="44" fill="#F1F1F1" height="276.1563" id="Figure" rx="2.5" ry="2.5" style="stroke:#181818;stroke-width:0.5;" width="164" x="405" y="754"/><ellipse cx="461.25" cy="770" fill="#A9DCDF" rx="11" ry="11" style="stroke:#181818;stroke-width:1.0;"/><path d="M461.3594,765.3438 L460.2031,770.4219 L462.5313,770.4219 L461.3594,765.3438 Z M459.875,763.1094 L462.8594,763.1094 L466.2188,775.5 L463.7656,775.5 L463,772.4375 L459.7188,772.4375 L458.9688,775.5 L456.5313,775.5 L459.875,763.1094 Z " fill="#000000"/><text fill="#000000" font-family="sans-serif" font-size="14" font-style="italic" lengthAdjust="spacing" textLength="43" x="481.75" y="774.8467">Figure</text><line style="stroke:#181818;stroke-width:0.5;" x1="406" x2="568" y1="786" y2="786"/><polygon fill="none" points="416,794.6484,420,798.6484,416,802.6484,412,798.6484" style="stroke:#B38D22;stroke-width:1.0;"/><text fill="#000000" font-family="sans-serif" font-size="14" lengthAdjust="spacing" textLength="42" x="425" y="802.9951">id : int</text><polygon fill="none" points="416,810.9453,420,814.9453,416,818.9453,412,814.9453" style="stroke:#B38D22;stroke-width:1.0;"/><text fill="#000000" font-family="sans-serif" font-size="14" lengthAdjust="spacing" textLength="37" x="425" y="819.292">x : int</text><polygon fill="none" points="416,827.2422,420,831.2422,416,835.2422,412,831.2422" style="stroke:#B38D22;stroke-width:1.0;"/><text fill="#000000" font-family="sans-serif" font-size="14" lengthAdjust="spacing" textLength="37" x="425" y="835.5889">y : int</text><polygon fill="none" points="416,843.5391,420,847.5391,416,851.5391,412,847.5391" style="stroke:#B38D22;stroke-width:1.0;"/><text fill="#000000" font-family="sans-serif" font-size="14" lengthAdjust="spacing" textLength="92" x="425" y="851.8857">isFilling : bool</text><line style="stroke:#181818;stroke-width:0.5;" x1="406" x2="568" y1="859.1875" y2="859.1875"/><ellipse cx="416" cy="872.8359" fill="#84BE84" rx="3" ry="3" style="stroke:#038048;stroke-width:1.0;"/><text fill="#000000" font-family="sans-serif" font-size="14" lengthAdjust="spacing" textLength="87" x="425" y="876.1826">info() : string</text><ellipse cx="416" cy="889.1328" fill="#84BE84" rx="3" ry="3" style="stroke:#038048;stroke-width:1.0;"/><text fill="#000000" font-family="sans-serif" font-size="14" lengthAdjust="spacing" textLength="84" x="425" y="892.4795">draw() : void</text><ellipse cx="416" cy="905.4297" fill="#84BE84" rx="3" ry="3" style="stroke:#038048;stroke-width:1.0;"/><text fill="#000000" font-family="sans-serif" font-size="14" lengthAdjust="spacing" textLength="64" x="425" y="908.7764">fill() : void</text><ellipse cx="416" cy="921.7266" fill="#84BE84" rx="3" ry="3" style="stroke:#038048;stroke-width:1.0;"/><text fill="#000000" font-family="sans-serif" font-size="14" lengthAdjust="spacing" textLength="89" x="425" y="925.0732">move() : void</text><ellipse cx="416" cy="938.0234" fill="#84BE84" rx="3" ry="3" style="stroke:#038048;stroke-width:1.0;"/><text fill="#000000" font-family="sans-serif" font-size="14" lengthAdjust="spacing" textLength="75" x="425" y="941.3701">getId() : int</text><ellipse cx="416" cy="954.3203" fill="#84BE84" rx="3" ry="3" style="stroke:#038048;stroke-width:1.0;"/><text fill="#000000" font-family="sans-serif" font-size="14" lengthAdjust="spacing" textLength="72" x="425" y="957.667">getX() : int</text><ellipse cx="416" cy="970.6172" fill="#84BE84" rx="3" ry="3" style="stroke:#038048;stroke-width:1.0;"/><text fill="#000000" font-family="sans-serif" font-size="14" lengthAdjust="spacing" textLength="72" x="425" y="973.9639">getY() : int</text><ellipse cx="416" cy="986.9141" fill="#84BE84" rx="3" ry="3" style="stroke:#038048;stroke-width:1.0;"/><text fill="#000000" font-family="sans-serif" font-size="14" lengthAdjust="spacing" textLength="125" x="425" y="990.2607">getIsFilling() : bool</text><ellipse cx="416" cy="1003.2109" fill="#84BE84" rx="3" ry="3" style="stroke:#038048;stroke-width:1.0;"/><text fill="#000000" font-family="sans-serif" font-size="14" lengthAdjust="spacing" textLength="124" x="425" y="1006.5576">saveToFile() : void</text><ellipse cx="416" cy="1019.5078" fill="#84BE84" rx="3" ry="3" style="stroke:#038048;stroke-width:1.0;"/><text fill="#000000" font-family="sans-serif" font-size="14" lengthAdjust="spacing" textLength="138" x="425" y="1022.8545">loadFromFile() : void</text></g><!--MD5=[a7f9118cae7621dd25d25149752faef0]
class Circle--><g id="elem_Circle"><rect codeLine="61" fill="#F1F1F1" height="162.0781" id="Circle" rx="2.5" ry="2.5" style="stroke:#181818;stroke-width:0.5;" width="164" x="7" y="1122.5"/><ellipse cx="65.75" cy="1138.5" fill="#ADD1B2" rx="11" ry="11" style="stroke:#181818;stroke-width:1.0;"/><path d="M68.7188,1144.1406 Q68.1406,1144.4375 67.5,1144.5781 Q66.8594,1144.7344 66.1563,1144.7344 Q63.6563,1144.7344 62.3281,1143.0938 Q61.0156,1141.4375 61.0156,1138.3125 Q61.0156,1135.1875 62.3281,1133.5313 Q63.6563,1131.875 66.1563,1131.875 Q66.8594,1131.875 67.5,1132.0313 Q68.1563,1132.1875 68.7188,1132.4844 L68.7188,1135.2031 Q68.0938,1134.625 67.5,1134.3594 Q66.9063,1134.0781 66.2813,1134.0781 Q64.9375,1134.0781 64.25,1135.1563 Q63.5625,1136.2188 63.5625,1138.3125 Q63.5625,1140.4063 64.25,1141.4844 Q64.9375,1142.5469 66.2813,1142.5469 Q66.9063,1142.5469 67.5,1142.2813 Q68.0938,1142 68.7188,1141.4219 L68.7188,1144.1406 Z " fill="#000000"/><text fill="#000000" font-family="sans-serif" font-size="14" lengthAdjust="spacing" textLength="38" x="86.25" y="1143.3467">Circle</text><line style="stroke:#181818;stroke-width:0.5;" x1="8" x2="170" y1="1154.5" y2="1154.5"/><rect fill="none" height="6" style="stroke:#C82930;stroke-width:1.0;" width="6" x="15" y="1165.1484"/><text fill="#000000" font-family="sans-serif" font-size="14" lengthAdjust="spacing" textLength="72" x="27" y="1171.4951">radius : int</text><line style="stroke:#181818;stroke-width:0.5;" x1="8" x2="170" y1="1178.7969" y2="1178.7969"/><ellipse cx="18" cy="1192.4453" fill="#84BE84" rx="3" ry="3" style="stroke:#038048;stroke-width:1.0;"/><text fill="#000000" font-family="sans-serif" font-size="14" lengthAdjust="spacing" textLength="87" x="27" y="1195.792">info() : string</text><ellipse cx="18" cy="1208.7422" fill="#84BE84" rx="3" ry="3" style="stroke:#038048;stroke-width:1.0;"/><text fill="#000000" font-family="sans-serif" font-size="14" lengthAdjust="spacing" textLength="84" x="27" y="1212.0889">draw() : void</text><ellipse cx="18" cy="1225.0391" fill="#84BE84" rx="3" ry="3" style="stroke:#038048;stroke-width:1.0;"/><text fill="#000000" font-family="sans-serif" font-size="14" lengthAdjust="spacing" textLength="64" x="27" y="1228.3857">fill() : void</text><ellipse cx="18" cy="1241.3359" fill="#84BE84" rx="3" ry="3" style="stroke:#038048;stroke-width:1.0;"/><text fill="#000000" font-family="sans-serif" font-size="14" lengthAdjust="spacing" textLength="110" x="27" y="1244.6826">getRadius() : int</text><ellipse cx="18" cy="1257.6328" fill="#84BE84" rx="3" ry="3" style="stroke:#038048;stroke-width:1.0;"/><text fill="#000000" font-family="sans-serif" font-size="14" lengthAdjust="spacing" textLength="124" x="27" y="1260.9795">saveToFile() : void</text><ellipse cx="18" cy="1273.9297" fill="#84BE84" rx="3" ry="3" style="stroke:#038048;stroke-width:1.0;"/><text fill="#000000" font-family="sans-serif" font-size="14" lengthAdjust="spacing" textLength="138" x="27" y="1277.2764">loadFromFile() : void</text></g><!--MD5=[b5313cd49da22b0744b541f414f8445e]
class Rectangle--><g id="elem_Rectangle"><rect codeLine="71" fill="#F1F1F1" height="194.6719" id="Rectangle" rx="2.5" ry="2.5" style="stroke:#181818;stroke-width:0.5;" width="164" x="206" y="1106"/><ellipse cx="248.9" cy="1122" fill="#ADD1B2" rx="11" ry="11" style="stroke:#181818;stroke-width:1.0;"/><path d="M251.8688,1127.6406 Q251.2906,1127.9375 250.65,1128.0781 Q250.0094,1128.2344 249.3063,1128.2344 Q246.8063,1128.2344 245.4781,1126.5938 Q244.1656,1124.9375 244.1656,1121.8125 Q244.1656,1118.6875 245.4781,1117.0313 Q246.8063,1115.375 249.3063,1115.375 Q250.0094,1115.375 250.65,1115.5313 Q251.3063,1115.6875 251.8688,1115.9844 L251.8688,1118.7031 Q251.2438,1118.125 250.65,1117.8594 Q250.0563,1117.5781 249.4313,1117.5781 Q248.0875,1117.5781 247.4,1118.6563 Q246.7125,1119.7188 246.7125,1121.8125 Q246.7125,1123.9063 247.4,1124.9844 Q248.0875,1126.0469 249.4313,1126.0469 Q250.0563,1126.0469 250.65,1125.7813 Q251.2438,1125.5 251.8688,1124.9219 L251.8688,1127.6406 Z " fill="#000000"/><text fill="#000000" font-family="sans-serif" font-size="14" lengthAdjust="spacing" textLength="70" x="269.1" y="1126.8467">Rectangle</text><line style="stroke:#181818;stroke-width:0.5;" x1="207" x2="369" y1="1138" y2="1138"/><rect fill="none" height="6" style="stroke:#C82930;stroke-width:1.0;" width="6" x="214" y="1148.6484"/><text fill="#000000" font-family="sans-serif" font-size="14" lengthAdjust="spacing" textLength="67" x="226" y="1154.9951">width : int</text><rect fill="none" height="6" style="stroke:#C82930;stroke-width:1.0;" width="6" x="214" y="1164.9453"/><text fill="#000000" font-family="sans-serif" font-size="14" lengthAdjust="spacing" textLength="74" x="226" y="1171.292">height : int</text><line style="stroke:#181818;stroke-width:0.5;" x1="207" x2="369" y1="1178.5938" y2="1178.5938"/><ellipse cx="217" cy="1192.2422" fill="#84BE84" rx="3" ry="3" style="stroke:#038048;stroke-width:1.0;"/><text fill="#000000" font-family="sans-serif" font-size="14" lengthAdjust="spacing" textLength="87" x="226" y="1195.5889">info() : string</text><ellipse cx="217" cy="1208.5391" fill="#84BE84" rx="3" ry="3" style="stroke:#038048;stroke-width:1.0;"/><text fill="#000000" font-family="sans-serif" font-size="14" lengthAdjust="spacing" textLength="84" x="226" y="1211.8857">draw() : void</text><ellipse cx="217" cy="1224.8359" fill="#84BE84" rx="3" ry="3" style="stroke:#038048;stroke-width:1.0;"/><text fill="#000000" font-family="sans-serif" font-size="14" lengthAdjust="spacing" textLength="64" x="226" y="1228.1826">fill() : void</text><ellipse cx="217" cy="1241.1328" fill="#84BE84" rx="3" ry="3" style="stroke:#038048;stroke-width:1.0;"/><text fill="#000000" font-family="sans-serif" font-size="14" lengthAdjust="spacing" textLength="102" x="226" y="1244.4795">getWidth() : int</text><ellipse cx="217" cy="1257.4297" fill="#84BE84" rx="3" ry="3" style="stroke:#038048;stroke-width:1.0;"/><text fill="#000000" font-family="sans-serif" font-size="14" lengthAdjust="spacing" textLength="108" x="226" y="1260.7764">getHeight() : int</text><ellipse cx="217" cy="1273.7266" fill="#84BE84" rx="3" ry="3" style="stroke:#038048;stroke-width:1.0;"/><text fill="#000000" font-family="sans-serif" font-size="14" lengthAdjust="spacing" textLength="124" x="226" y="1277.0732">saveToFile() : void</text><ellipse cx="217" cy="1290.0234" fill="#84BE84" rx="3" ry="3" style="stroke:#038048;stroke-width:1.0;"/><text fill="#000000" font-family="sans-serif" font-size="14" lengthAdjust="spacing" textLength="138" x="226" y="1293.3701">loadFromFile() : void</text></g><!--MD5=[808f000c2c1e997289af5cb848fa6799]
class Rhombus--><g id="elem_Rhombus"><rect codeLine="83" fill="#F1F1F1" height="194.6719" id="Rhombus" rx="2.5" ry="2.5" style="stroke:#181818;stroke-width:0.5;" width="164" x="405" y="1106"/><ellipse cx="449.25" cy="1122" fill="#ADD1B2" rx="11" ry="11" style="stroke:#181818;stroke-width:1.0;"/><path d="M452.2188,1127.6406 Q451.6406,1127.9375 451,1128.0781 Q450.3594,1128.2344 449.6563,1128.2344 Q447.1563,1128.2344 445.8281,1126.5938 Q444.5156,1124.9375 444.5156,1121.8125 Q444.5156,1118.6875 445.8281,1117.0313 Q447.1563,1115.375 449.6563,1115.375 Q450.3594,1115.375 451,1115.5313 Q451.6563,1115.6875 452.2188,1115.9844 L452.2188,1118.7031 Q451.5938,1118.125 451,1117.8594 Q450.4063,1117.5781 449.7813,1117.5781 Q448.4375,1117.5781 447.75,1118.6563 Q447.0625,1119.7188 447.0625,1121.8125 Q447.0625,1123.9063 447.75,1124.9844 Q448.4375,1126.0469 449.7813,1126.0469 Q450.4063,1126.0469 451,1125.7813 Q451.5938,1125.5 452.2188,1124.9219 L452.2188,1127.6406 Z " fill="#000000"/><text fill="#000000" font-family="sans-serif" font-size="14" lengthAdjust="spacing" textLength="67" x="469.75" y="1126.8467">Rhombus</text><line style="stroke:#181818;stroke-width:0.5;" x1="406" x2="568" y1="1138" y2="1138"/><rect fill="none" height="6" style="stroke:#C82930;stroke-width:1.0;" width="6" x="413" y="1148.6484"/><text fill="#000000" font-family="sans-serif" font-size="14" lengthAdjust="spacing" textLength="97" x="425" y="1154.9951">diagonal1 : int</text><rect fill="none" height="6" style="stroke:#C82930;stroke-width:1.0;" width="6" x="413" y="1164.9453"/><text fill="#000000" font-family="sans-serif" font-size="14" lengthAdjust="spacing" textLength="97" x="425" y="1171.292">diagonal2 : int</text><line style="stroke:#181818;stroke-width:0.5;" x1="406" x2="568" y1="1178.5938" y2="1178.5938"/><ellipse cx="416" cy="1192.2422" fill="#84BE84" rx="3" ry="3" style="stroke:#038048;stroke-width:1.0;"/><text fill="#000000" font-family="sans-serif" font-size="14" lengthAdjust="spacing" textLength="87" x="425" y="1195.5889">info() : string</text><ellipse cx="416" cy="1208.5391" fill="#84BE84" rx="3" ry="3" style="stroke:#038048;stroke-width:1.0;"/><text fill="#000000" font-family="sans-serif" font-size="14" lengthAdjust="spacing" textLength="84" x="425" y="1211.8857">draw() : void</text><ellipse cx="416" cy="1224.8359" fill="#84BE84" rx="3" ry="3" style="stroke:#038048;stroke-width:1.0;"/><text fill="#000000" font-family="sans-serif" font-size="14" lengthAdjust="spacing" textLength="64" x="425" y="1228.1826">fill() : void</text><ellipse cx="416" cy="1241.1328" fill="#84BE84" rx="3" ry="3" style="stroke:#038048;stroke-width:1.0;"/><text fill="#000000" font-family="sans-serif" font-size="14" lengthAdjust="spacing" textLength="132" x="425" y="1244.4795">getDiagonal1() : int</text><ellipse cx="416" cy="1257.4297" fill="#84BE84" rx="3" ry="3" style="stroke:#038048;stroke-width:1.0;"/><text fill="#000000" font-family="sans-serif" font-size="14" lengthAdjust="spacing" textLength="132" x="425" y="1260.7764">getDiagonal2() : int</text><ellipse cx="416" cy="1273.7266" fill="#84BE84" rx="3" ry="3" style="stroke:#038048;stroke-width:1.0;"/><text fill="#000000" font-family="sans-serif" font-size="14" lengthAdjust="spacing" textLength="124" x="425" y="1277.0732">saveToFile() : void</text><ellipse cx="416" cy="1290.0234" fill="#84BE84" rx="3" ry="3" style="stroke:#038048;stroke-width:1.0;"/><text fill="#000000" font-family="sans-serif" font-size="14" lengthAdjust="spacing" textLength="138" x="425" y="1293.3701">loadFromFile() : void</text></g><!--MD5=[5655ee3e2a0d028d03fe20f829576392]
class Square--><g id="elem_Square"><rect codeLine="95" fill="#F1F1F1" height="162.0781" id="Square" rx="2.5" ry="2.5" style="stroke:#181818;stroke-width:0.5;" width="164" x="604" y="1122.5"/><ellipse cx="657.25" cy="1138.5" fill="#ADD1B2" rx="11" ry="11" style="stroke:#181818;stroke-width:1.0;"/><path d="M660.2188,1144.1406 Q659.6406,1144.4375 659,1144.5781 Q658.3594,1144.7344 657.6563,1144.7344 Q655.1563,1144.7344 653.8281,1143.0938 Q652.5156,1141.4375 652.5156,1138.3125 Q652.5156,1135.1875 653.8281,1133.5313 Q655.1563,1131.875 657.6563,1131.875 Q658.3594,1131.875 659,1132.0313 Q659.6563,1132.1875 660.2188,1132.4844 L660.2188,1135.2031 Q659.5938,1134.625 659,1134.3594 Q658.4063,1134.0781 657.7813,1134.0781 Q656.4375,1134.0781 655.75,1135.1563 Q655.0625,1136.2188 655.0625,1138.3125 Q655.0625,1140.4063 655.75,1141.4844 Q656.4375,1142.5469 657.7813,1142.5469 Q658.4063,1142.5469 659,1142.2813 Q659.5938,1142 660.2188,1141.4219 L660.2188,1144.1406 Z " fill="#000000"/><text fill="#000000" font-family="sans-serif" font-size="14" lengthAdjust="spacing" textLength="49" x="677.75" y="1143.3467">Square</text><line style="stroke:#181818;stroke-width:0.5;" x1="605" x2="767" y1="1154.5" y2="1154.5"/><rect fill="none" height="6" style="stroke:#C82930;stroke-width:1.0;" width="6" x="612" y="1165.1484"/><text fill="#000000" font-family="sans-serif" font-size="14" lengthAdjust="spacing" textLength="74" x="624" y="1171.4951">length : int</text><line style="stroke:#181818;stroke-width:0.5;" x1="605" x2="767" y1="1178.7969" y2="1178.7969"/><ellipse cx="615" cy="1192.4453" fill="#84BE84" rx="3" ry="3" style="stroke:#038048;stroke-width:1.0;"/><text fill="#000000" font-family="sans-serif" font-size="14" lengthAdjust="spacing" textLength="87" x="624" y="1195.792">info() : string</text><ellipse cx="615" cy="1208.7422" fill="#84BE84" rx="3" ry="3" style="stroke:#038048;stroke-width:1.0;"/><text fill="#000000" font-family="sans-serif" font-size="14" lengthAdjust="spacing" textLength="84" x="624" y="1212.0889">draw() : void</text><ellipse cx="615" cy="1225.0391" fill="#84BE84" rx="3" ry="3" style="stroke:#038048;stroke-width:1.0;"/><text fill="#000000" font-family="sans-serif" font-size="14" lengthAdjust="spacing" textLength="64" x="624" y="1228.3857">fill() : void</text><ellipse cx="615" cy="1241.3359" fill="#84BE84" rx="3" ry="3" style="stroke:#038048;stroke-width:1.0;"/><text fill="#000000" font-family="sans-serif" font-size="14" lengthAdjust="spacing" textLength="111" x="624" y="1244.6826">getLength() : int</text><ellipse cx="615" cy="1257.6328" fill="#84BE84" rx="3" ry="3" style="stroke:#038048;stroke-width:1.0;"/><text fill="#000000" font-family="sans-serif" font-size="14" lengthAdjust="spacing" textLength="124" x="624" y="1260.9795">saveToFile() : void</text><ellipse cx="615" cy="1273.9297" fill="#84BE84" rx="3" ry="3" style="stroke:#038048;stroke-width:1.0;"/><text fill="#000000" font-family="sans-serif" font-size="14" lengthAdjust="spacing" textLength="138" x="624" y="1277.2764">loadFromFile() : void</text></g><!--MD5=[40b067e448d061f8c1f714bff454de58]
class Triangle--><g id="elem_Triangle"><rect codeLine="105" fill="#F1F1F1" height="227.2656" id="Triangle" rx="2.5" ry="2.5" style="stroke:#181818;stroke-width:0.5;" width="164" x="803" y="1090"/><ellipse cx="853.25" cy="1106" fill="#ADD1B2" rx="11" ry="11" style="stroke:#181818;stroke-width:1.0;"/><path d="M856.2188,1111.6406 Q855.6406,1111.9375 855,1112.0781 Q854.3594,1112.2344 853.6563,1112.2344 Q851.1563,1112.2344 849.8281,1110.5938 Q848.5156,1108.9375 848.5156,1105.8125 Q848.5156,1102.6875 849.8281,1101.0313 Q851.1563,1099.375 853.6563,1099.375 Q854.3594,1099.375 855,1099.5313 Q855.6563,1099.6875 856.2188,1099.9844 L856.2188,1102.7031 Q855.5938,1102.125 855,1101.8594 Q854.4063,1101.5781 853.7813,1101.5781 Q852.4375,1101.5781 851.75,1102.6563 Q851.0625,1103.7188 851.0625,1105.8125 Q851.0625,1107.9063 851.75,1108.9844 Q852.4375,1110.0469 853.7813,1110.0469 Q854.4063,1110.0469 855,1109.7813 Q855.5938,1109.5 856.2188,1108.9219 L856.2188,1111.6406 Z " fill="#000000"/><text fill="#000000" font-family="sans-serif" font-size="14" lengthAdjust="spacing" textLength="55" x="873.75" y="1110.8467">Triangle</text><line style="stroke:#181818;stroke-width:0.5;" x1="804" x2="966" y1="1122" y2="1122"/><rect fill="none" height="6" style="stroke:#C82930;stroke-width:1.0;" width="6" x="811" y="1132.6484"/><text fill="#000000" font-family="sans-serif" font-size="14" lengthAdjust="spacing" textLength="68" x="823" y="1138.9951">sideA : int</text><rect fill="none" height="6" style="stroke:#C82930;stroke-width:1.0;" width="6" x="811" y="1148.9453"/><text fill="#000000" font-family="sans-serif" font-size="14" lengthAdjust="spacing" textLength="69" x="823" y="1155.292">sideB : int</text><rect fill="none" height="6" style="stroke:#C82930;stroke-width:1.0;" width="6" x="811" y="1165.2422"/><text fill="#000000" font-family="sans-serif" font-size="14" lengthAdjust="spacing" textLength="69" x="823" y="1171.5889">sideC : int</text><line style="stroke:#181818;stroke-width:0.5;" x1="804" x2="966" y1="1178.8906" y2="1178.8906"/><ellipse cx="814" cy="1192.5391" fill="#84BE84" rx="3" ry="3" style="stroke:#038048;stroke-width:1.0;"/><text fill="#000000" font-family="sans-serif" font-size="14" lengthAdjust="spacing" textLength="87" x="823" y="1195.8857">info() : string</text><ellipse cx="814" cy="1208.8359" fill="#84BE84" rx="3" ry="3" style="stroke:#038048;stroke-width:1.0;"/><text fill="#000000" font-family="sans-serif" font-size="14" lengthAdjust="spacing" textLength="84" x="823" y="1212.1826">draw() : void</text><ellipse cx="814" cy="1225.1328" fill="#84BE84" rx="3" ry="3" style="stroke:#038048;stroke-width:1.0;"/><text fill="#000000" font-family="sans-serif" font-size="14" lengthAdjust="spacing" textLength="64" x="823" y="1228.4795">fill() : void</text><ellipse cx="814" cy="1241.4297" fill="#84BE84" rx="3" ry="3" style="stroke:#038048;stroke-width:1.0;"/><text fill="#000000" font-family="sans-serif" font-size="14" lengthAdjust="spacing" textLength="102" x="823" y="1244.7764">getSideA() : int</text><ellipse cx="814" cy="1257.7266" fill="#84BE84" rx="3" ry="3" style="stroke:#038048;stroke-width:1.0;"/><text fill="#000000" font-family="sans-serif" font-size="14" lengthAdjust="spacing" textLength="103" x="823" y="1261.0732">getSideB() : int</text><ellipse cx="814" cy="1274.0234" fill="#84BE84" rx="3" ry="3" style="stroke:#038048;stroke-width:1.0;"/><text fill="#000000" font-family="sans-serif" font-size="14" lengthAdjust="spacing" textLength="103" x="823" y="1277.3701">getSideC() : int</text><ellipse cx="814" cy="1290.3203" fill="#84BE84" rx="3" ry="3" style="stroke:#038048;stroke-width:1.0;"/><text fill="#000000" font-family="sans-serif" font-size="14" lengthAdjust="spacing" textLength="124" x="823" y="1293.667">saveToFile() : void</text><ellipse cx="814" cy="1306.6172" fill="#84BE84" rx="3" ry="3" style="stroke:#038048;stroke-width:1.0;"/><text fill="#000000" font-family="sans-serif" font-size="14" lengthAdjust="spacing" textLength="138" x="823" y="1309.9639">loadFromFile() : void</text></g><!--MD5=[69feb34108c8ec678397b32446ae5034]
class CanvasSerializer--><g id="elem_CanvasSerializer"><rect codeLine="119" fill="#F1F1F1" height="80.5938" id="CanvasSerializer" rx="2.5" ry="2.5" style="stroke:#181818;stroke-width:0.5;" width="164" x="376" y="572.5"/><ellipse cx="400" cy="588.5" fill="#ADD1B2" rx="11" ry="11" style="stroke:#181818;stroke-width:1.0;"/><path d="M402.9688,594.1406 Q402.3906,594.4375 401.75,594.5781 Q401.1094,594.7344 400.4063,594.7344 Q397.9063,594.7344 396.5781,593.0938 Q395.2656,591.4375 395.2656,588.3125 Q395.2656,585.1875 396.5781,583.5313 Q397.9063,581.875 400.4063,581.875 Q401.1094,581.875 401.75,582.0313 Q402.4063,582.1875 402.9688,582.4844 L402.9688,585.2031 Q402.3438,584.625 401.75,584.3594 Q401.1563,584.0781 400.5313,584.0781 Q399.1875,584.0781 398.5,585.1563 Q397.8125,586.2188 397.8125,588.3125 Q397.8125,590.4063 398.5,591.4844 Q399.1875,592.5469 400.5313,592.5469 Q401.1563,592.5469 401.75,592.2813 Q402.3438,592 402.9688,591.4219 L402.9688,594.1406 Z " fill="#000000"/><text fill="#000000" font-family="sans-serif" font-size="14" lengthAdjust="spacing" textLength="112" x="416" y="593.3467">CanvasSerializer</text><line style="stroke:#181818;stroke-width:0.5;" x1="377" x2="539" y1="604.5" y2="604.5"/><line style="stroke:#181818;stroke-width:0.5;" x1="377" x2="539" y1="612.5" y2="612.5"/><ellipse cx="387" cy="626.1484" fill="#84BE84" rx="3" ry="3" style="stroke:#038048;stroke-width:1.0;"/><text fill="#000000" font-family="sans-serif" font-size="14" lengthAdjust="spacing" textLength="124" x="396" y="629.4951">saveToFile() : void</text><ellipse cx="387" cy="642.4453" fill="#84BE84" rx="3" ry="3" style="stroke:#038048;stroke-width:1.0;"/><text fill="#000000" font-family="sans-serif" font-size="14" lengthAdjust="spacing" textLength="138" x="396" y="645.792">loadFromFile() : void</text></g><!--MD5=[4784706a24c06ca9ada6625352c022ee]
link ConsoleUI to Canvas--><g id="link_ConsoleUI_Canvas"><path codeLine="124" d="M455.71,234.24 C446.04,252.62 436.12,271.48 426.75,289.31 " fill="none" id="ConsoleUI-to-Canvas" style="stroke:#181818;stroke-width:1.0;"/><polygon fill="#181818" points="424.38,293.82,432.1171,287.7259,426.7129,289.3976,425.0412,283.9934,424.38,293.82" style="stroke:#181818;stroke-width:1.0;"/></g><!--MD5=[7408ce22e7df00c1bf70577f077a6b9e]
link ConsoleUI to Actions--><g id="link_ConsoleUI_Actions"><path codeLine="125" d="M574.29,234.24 C588.52,261.3 603.29,289.38 616.08,313.7 " fill="none" id="ConsoleUI-to-Actions" style="stroke:#181818;stroke-width:1.0;"/><polygon fill="#181818" points="618.45,318.2,617.8019,308.3725,616.123,313.7745,610.721,312.0956,618.45,318.2" style="stroke:#181818;stroke-width:1.0;"/></g><!--MD5=[cdbf97274c3fa5809f98ae6cba4b53d0]
link Canvas to Figure--><g id="link_Canvas_Figure"><path codeLine="126" d="M356.23,472.03 C344.48,535.1 336.34,621.39 358,694 C366.74,723.31 381.39,752.31 397.75,778.68 " fill="none" id="Canvas-to-Figure" style="stroke:#181818;stroke-width:1.0;"/><polygon fill="none" points="404.85,789.82,404.9949,782.6104,398.3956,779.7037,398.2507,786.9133,404.85,789.82" style="stroke:#181818;stroke-width:1.0;"/></g><!--MD5=[bb402b81a67b53f229ff31ccd002bcff]
link Canvas to CanvasSerializer--><g id="link_Canvas_CanvasSerializer"><path codeLine="127" d="M408.93,472.15 C420.35,504.71 432.82,540.24 442.33,567.34 " fill="none" id="Canvas-to-CanvasSerializer" style="stroke:#181818;stroke-width:1.0;stroke-dasharray:7.0,7.0;"/><polygon fill="#181818" points="444.07,572.3,444.8683,562.4836,442.4163,567.5814,437.3185,565.1294,444.07,572.3" style="stroke:#181818;stroke-width:1.0;"/></g><!--MD5=[cebee492b89065ed1d32bf24a96197ae]
link Actions to ActionRecord--><g id="link_Actions_ActionRecord"><path codeLine="128" d="M652,447.51 C652,469.52 652,494.68 652,518.59 " fill="none" id="Actions-to-ActionRecord" style="stroke:#181818;stroke-width:1.0;"/><polygon fill="none" points="652,531.72,656,525.72,652,519.72,648,525.72,652,531.72" style="stroke:#181818;stroke-width:1.0;"/></g><!--MD5=[5a5ee8e3fc3e58a421c916ac744e6c0e]
link ActionRecord to Figure--><g id="link_ActionRecord_Figure"><path codeLine="129" d="M604.28,694.12 C593.88,711.57 582.58,730.54 571.24,749.58 " fill="none" id="ActionRecord-to-Figure" style="stroke:#181818;stroke-width:1.0;stroke-dasharray:7.0,7.0;"/><polygon fill="#181818" points="568.66,753.91,576.7204,748.2505,571.2325,749.6225,569.8605,744.1346,568.66,753.91" style="stroke:#181818;stroke-width:1.0;"/></g><!--MD5=[1208200553d00bbe7eda75b0249f99fe]
reverse link Figure to Circle--><g id="link_Figure_Circle"><path codeLine="131" d="M387.42,949.38 C326.91,985.83 249.69,1036.35 188,1090 C176.61,1099.9 165.31,1111.09 154.62,1122.48 " fill="none" id="Figure-backto-Circle" style="stroke:#181818;stroke-width:1.0;"/><polygon fill="none" points="384.06,943.24,404.82,939.01,391.22,955.26,384.06,943.24" style="stroke:#181818;stroke-width:1.0;"/></g><!--MD5=[26ddf066d04e95ad19f62102cdba235b]
reverse link Figure to Rectangle--><g id="link_Figure_Rectangle"><path codeLine="132" d="M393.89,1037.81 C379.05,1060.88 364.03,1084.26 350.14,1105.86 " fill="none" id="Figure-backto-Rectangle" style="stroke:#181818;stroke-width:1.0;"/><polygon fill="none" points="388.21,1033.71,404.91,1020.67,399.98,1041.28,388.21,1033.71" style="stroke:#181818;stroke-width:1.0;"/></g><!--MD5=[c154b4c5b8e5cd90f4b57d61785e6e16]
reverse link Figure to Rhombus--><g id="link_Figure_Rhombus"><path codeLine="133" d="M487,1050.24 C487,1069.21 487,1088.13 487,1105.86 " fill="none" id="Figure-backto-Rhombus" style="stroke:#181818;stroke-width:1.0;"/><polygon fill="none" points="480,1050.1,487,1030.1,494,1050.1,480,1050.1" style="stroke:#181818;stroke-width:1.0;"/></g><!--MD5=[5c5634ce16133b21b91ad1b283e43e6f]
reverse link Figure to Square--><g id="link_Figure_Square"><path codeLine="134" d="M580.07,1037.76 C598.82,1066.92 617.88,1096.55 634.56,1122.5 " fill="none" id="Figure-backto-Square" style="stroke:#181818;stroke-width:1.0;"/><polygon fill="none" points="574.02,1041.28,569.09,1020.67,585.79,1033.71,574.02,1041.28" style="stroke:#181818;stroke-width:1.0;"/></g><!--MD5=[b98b481f814bda019a00e5e3c7444e77]
reverse link Figure to Triangle--><g id="link_Figure_Triangle"><path codeLine="135" d="M586.58,949.38 C647.09,985.83 724.31,1036.35 786,1090 C791.69,1094.95 797.37,1100.22 802.95,1105.68 " fill="none" id="Figure-backto-Triangle" style="stroke:#181818;stroke-width:1.0;"/><polygon fill="none" points="582.78,955.26,569.18,939.01,589.94,943.24,582.78,955.26" style="stroke:#181818;stroke-width:1.0;"/></g><!--MD5=[6b5e145ece3f7de3cc56b5ca7071a976]
@startuml
class ConsoleUI {
  - canvas : Canvas
  - actions : Actions
  + run() : void
  + checkingForInput() : void
  - addFigure() : void
  - deleteFigure() : void
  - moveFigure() : void
  - saveCanvas() : void
  - loadCanvas() : void
  - undoAction() : void
  - redoAction() : void
}

class Canvas {
  - figures : List<Figure>
  - grid : char[][]
  + addFigure() : void
  + removeFigure() : void
  + moveFigure() : void
  + repaint() : void
  + clearGrid() : void
  + getFigures() : List<Figure>
}

class Actions {
  - history : Stack<ActionRecord>
  - redoStack : Stack<ActionRecord>
  + addAction() : void
  + undo() : void
  + redo() : void
}

class ActionRecord {
  + actionType : string
  + figureId : int
  + xOld : int
  + yOld : int
  + xNew : int
  + yNew : int
  + figure : Figure
}

abstract class Figure {
  # id : int
  # x : int
  # y : int
  # isFilling : bool
  + info() : string
  + draw() : void
  + fill() : void
  + move() : void
  + getId() : int
  + getX() : int
  + getY() : int
  + getIsFilling() : bool
  + saveToFile() : void
  + loadFromFile() : void
}

class Circle {
  - radius : int
  + info() : string
  + draw() : void
  + fill() : void
  + getRadius() : int
  + saveToFile() : void
  + loadFromFile() : void
}

class Rectangle {
  - width : int
  - height : int
  + info() : string
  + draw() : void
  + fill() : void
  + getWidth() : int
  + getHeight() : int
  + saveToFile() : void
  + loadFromFile() : void
}

class Rhombus {
  - diagonal1 : int
  - diagonal2 : int
  + info() : string
  + draw() : void
  + fill() : void
  + getDiagonal1() : int
  + getDiagonal2() : int
  + saveToFile() : void
  + loadFromFile() : void
}

class Square {
  - length : int
  + info() : string
  + draw() : void
  + fill() : void
  + getLength() : int
  + saveToFile() : void
  + loadFromFile() : void
}

class Triangle {
  - sideA : int
  - sideB : int
  - sideC : int
  + info() : string
  + draw() : void
  + fill() : void
  + getSideA() : int
  + getSideB() : int
  + getSideC() : int
  + saveToFile() : void
  + loadFromFile() : void
}

class CanvasSerializer {
  + saveToFile() : void
  + loadFromFile() : void
}

ConsoleUI - -> Canvas
ConsoleUI - -> Actions 
Canvas - -o  Figure
Canvas ..> CanvasSerializer
Actions - -o ActionRecord
ActionRecord ..> Figure

Figure <|- - Circle
Figure <|- - Rectangle
Figure <|- - Rhombus
Figure <|- - Square
Figure <|- - Triangle
@enduml

PlantUML version 1.2022.7(Mon Aug 22 17:01:30 UTC 2022)
(GPL source distribution)
Java Runtime: OpenJDK Runtime Environment
JVM: OpenJDK 64-Bit Server VM
Default Encoding: UTF-8
Language: en
Country: null
--></g></svg>